HIERARCHY
ROOT Hips
{
	OFFSET 0.000000 0.000000 0.000000
	CHANNELS 6 Xposition Yposition Zposition Zrotation Yrotation Xrotation 
	JOINT LHipJoint
	{
		OFFSET 0.000000 0.000000 0.000000
		CHANNELS 3 Zrotation Yrotation Xrotation
		JOINT LeftUpLeg
		{
			OFFSET 1.363060 -1.794630 0.839290
			CHANNELS 3 Zrotation Yrotation Xrotation
			JOINT LeftLeg
			{
				OFFSET 2.448110 -6.726130 0.000000
				CHANNELS 3 Zrotation Yrotation Xrotation
				JOINT LeftFoot
				{
					OFFSET 2.562200 -7.039590 0.000000
					CHANNELS 3 Zrotation Yrotation Xrotation
					JOINT LeftToeBase
					{
						OFFSET 0.157640 -0.433110 2.322550
						CHANNELS 3 Zrotation Yrotation Xrotation
						End Site
						{
							OFFSET 0.000000 0.000000 0.000000
						}
					}
				}
			}
		}
	}
	JOINT RHipJoint
	{
		OFFSET 0.000000 0.000000 0.000000
		CHANNELS 3 Zrotation Yrotation Xrotation
		JOINT RightUpLeg
		{
			OFFSET -1.305520 -1.794630 0.839290
			CHANNELS 3 Zrotation Yrotation Xrotation
			JOINT RightLeg
			{
				OFFSET -2.542530 -6.985550 0.000000
				CHANNELS 3 Zrotation Yrotation Xrotation
				JOINT RightFoot
				{
					OFFSET -2.568260 -7.056230 0.000000
					CHANNELS 3 Zrotation Yrotation Xrotation
					JOINT RightToeBase
					{
						OFFSET -0.164730 -0.452590 2.363150
						CHANNELS 3 Zrotation Yrotation Xrotation
						End Site
						{
							OFFSET 0.000000 0.000000 0.000000
						}
					}
				}
			}
		}
	}
}
MOTION
Frames: 27
Frame Time: 0.008333
-2.352986 17.732994 -0.719450 23.015105 82.722364 25.779906 -10.514387 1.286497 0.428532 -16.200992 16.671801 -28.328815 -3.165977 -0.157714 3.810901 -0.079710 -0.000921 17.247567 0.333800 0.000000 -40.650200 10.148651 -4.028155 -0.387204 4.211121 -8.179856 5.520436 -0.022141 -2.369814 25.456447 -1.716611 -9.667111 16.508631 -3.962000 -0.000001 -66.572899
-2.117182 17.770174 -0.729195 21.534267 82.549074 23.945643 -10.626335 1.340767 0.500382 -15.639434 16.471277 -27.369310 -3.090458 -0.121497 3.584118 -0.104152 -0.572944 18.174236 0.077700 -0.000000 -41.411400 10.198047 -3.972618 -0.517240 3.950094 -8.689042 5.021369 -0.203715 -2.471562 27.636111 -2.006769 -11.463585 16.944772 -4.746600 -0.000000 -64.336999
-1.883381 17.795219 -0.736607 20.353848 82.429049 22.414228 -10.722943 1.394428 0.581263 -15.034069 16.105745 -26.351721 -2.987078 -0.081602 3.556157 -0.093870 -0.757304 18.829949 -0.026300 0.000000 -41.619600 10.255085 -3.894985 -0.682166 3.685325 -9.279209 4.462909 -0.360766 -2.566522 29.905126 -2.324619 -13.499148 16.703473 -5.549500 -0.000000 -61.751700
-1.651238 17.807751 -0.742404 19.327255 82.359516 21.055400 -10.806633 1.447589 0.674707 -14.397202 15.590038 -25.313483 -2.862242 -0.039799 3.712269 -0.058662 -0.615737 19.195938 0.009500 -0.000000 -41.272300 10.311094 -3.803719 -0.872727 3.430400 -9.933464 3.834088 -0.490032 -2.659281 32.226231 -2.652145 -15.621485 15.835372 -6.258300 0.000000 -58.892701
-1.421008 17.807476 -0.746842 18.464138 82.331124 19.875199 -10.875108 1.499501 0.775911 -13.753386 14.940204 -24.251616 -2.723756 0.001157 4.024190 -0.006486 -0.212988 19.245025 0.162100 -0.000000 -40.358400 10.367181 -3.703919 -1.088734 3.160062 -10.649676 3.144142 -0.591388 -2.755681 34.566469 -2.967862 -17.645249 14.424557 -6.751200 0.000001 -55.857900
-1.192710 17.794533 -0.750172 17.806370 82.333153 18.927939 -10.923062 1.548725 0.895889 -13.116428 14.090754 -23.135828 -2.575575 0.034244 4.402094 0.062456 0.469613 18.991884 0.436601 0.000000 -39.076601 10.426734 -3.598367 -1.326847 2.850999 -11.415772 2.378635 -0.666438 -2.859269 36.902770 -3.250287 -19.401861 12.579576 -6.937300 -0.000001 -52.752900
-0.966165 17.769126 -0.752950 17.205131 82.351412 18.078564 -10.952840 1.593557 1.020426 -12.521904 13.159531 -22.080524 -2.430835 0.063838 4.947563 0.135429 1.246958 18.342320 0.743300 -0.000000 -37.424700 10.482691 -3.493197 -1.566254 2.533758 -12.189858 1.509739 -0.718885 -2.967976 39.218182 -3.483518 -20.789913 10.433375 -6.792700 -0.000000 -49.733000
-0.741638 17.731630 -0.755038 16.751346 82.372286 17.423046 -10.959729 1.631636 1.147367 -11.998362 12.148498 -21.097316 -2.296389 0.087645 5.651132 0.211029 2.081299 17.279420 1.050900 0.000000 -35.578700 10.540959 -3.387689 -1.799958 2.190479 -12.950871 0.522763 -0.752418 -3.081452 41.501544 -3.652914 -21.727302 8.116907 -6.335400 0.000000 -46.949401
-0.519426 17.682503 -0.755943 16.586372 82.384688 17.106257 -10.938487 1.660373 1.272757 -11.580573 11.064070 -20.200544 -2.178656 0.104534 6.513360 0.289995 2.944460 15.802455 1.330000 -0.000001 -33.743500 10.608854 -3.279576 -2.021415 1.801088 -13.677590 -0.594437 -0.770225 -3.199194 43.744954 -3.749122 -22.178216 5.749987 -5.629400 -0.000000 -44.539700
-0.299827 17.622268 -0.755757 16.620772 82.371940 17.042272 -10.895898 1.677665 1.375564 -11.287746 10.049510 -19.502296 -2.087382 0.122214 7.667153 0.364164 3.676477 13.856787 1.498400 -0.000000 -31.934000 10.681079 -3.168395 -2.213319 1.402167 -14.322942 -1.855718 -0.776941 -3.316466 45.938972 -3.772385 -22.173570 3.438773 -4.776000 -0.000000 -42.622400
-0.083443 17.551454 -0.753261 17.128916 82.327984 17.495838 -10.825381 1.682015 1.451440 -11.152663 9.080746 -18.968655 -2.024974 0.140418 9.075366 0.440698 4.321569 11.517087 1.565800 -0.000000 -30.386800 10.769507 -3.047890 -2.379170 0.949239 -14.879506 -3.249157 -0.774964 -3.435517 48.075800 -3.724076 -21.738974 1.252104 -3.862800 0.000000 -41.248800
0.129426 17.470613 -0.748859 17.839064 82.243689 18.198773 -10.743076 1.672562 1.474419 -11.156265 8.338828 -18.734370 -1.997598 0.172370 10.906472 0.508880 4.712934 8.760387 1.473000 0.000000 -29.001999 10.861562 -2.920340 -2.501618 0.516524 -15.294554 -4.781948 -0.768514 -3.551335 50.145573 -3.618082 -20.974139 -0.760452 -2.980200 0.000000 -40.421601
0.337969 17.380319 -0.741070 19.017698 82.121416 19.397898 -10.642611 1.651172 1.441919 -11.318663 7.772184 -18.726176 -2.002604 0.220296 13.084451 0.578134 4.948345 5.729255 1.272600 -0.000000 -27.973599 10.969433 -2.778980 -2.592192 0.048117 -15.578312 -6.421126 -0.759504 -3.668753 52.141354 -3.465001 -19.942525 -2.592611 -2.174100 0.000000 -40.066900
0.541978 17.281234 -0.730822 20.253312 81.962652 20.688681 -10.543564 1.619755 1.340317 -11.578163 7.492043 -19.038056 -2.036768 0.298200 15.718600 0.641204 4.949062 2.464122 0.967701 0.000000 -27.161300 11.077049 -2.627555 -2.640310 -0.366013 -15.690676 -8.169631 -0.751531 -3.783352 54.059524 -3.286753 -18.773362 -4.255224 -1.477400 -0.000000 -40.037400
0.740947 17.174183 -0.717846 21.501028 81.775981 22.020437 -10.449148 1.581617 1.175640 -11.904993 7.441079 -19.621097 -2.089736 0.410496 18.739597 0.704989 4.811686 -0.894615 0.617700 0.000000 -26.605500 11.184371 -2.463278 -2.654131 -0.724605 -15.637005 -10.008530 -0.746391 -3.896556 55.899579 -3.101326 -17.564915 -5.787390 -0.890300 0.000000 -40.139500
0.934718 17.060295 -0.702261 22.684592 81.571202 23.315639 -10.362757 1.539696 0.958801 -12.266230 7.549924 -20.420433 -2.148680 0.558769 22.060111 0.775927 4.631761 -4.216704 0.265500 -0.000000 -26.297200 11.289604 -2.283953 -2.641470 -1.022229 -15.428551 -11.923429 -0.745315 -4.009069 57.662673 -2.926286 -16.413042 -7.237073 -0.399101 0.000000 -40.168400
1.123289 16.941087 -0.684261 23.749309 81.357210 24.518957 -10.286536 1.496196 0.704533 -12.633881 7.743357 -21.368683 -2.200303 0.739838 25.566091 0.859490 4.498596 -7.385871 -0.066800 0.000000 -26.223100 11.390833 -2.087459 -2.609525 -1.258619 -15.083864 -13.902654 -0.748878 -4.121029 59.348089 -2.776871 -15.401193 -8.651204 0.017200 -0.000000 -39.948901
1.306994 16.818415 -0.663907 24.703026 81.140317 25.635600 -10.219538 1.452758 0.427319 -12.995093 7.955871 -22.388717 -2.234044 0.945835 29.130549 0.958638 4.478325 -10.312564 -0.377200 0.000000 -26.356700 11.488119 -1.871898 -2.564850 -1.448304 -14.630735 -15.932741 -0.756892 -4.232767 60.951109 -2.664307 -14.590486 -10.066709 0.382599 0.000000 -39.366001
1.486419 16.694394 -0.641197 25.585113 80.925183 26.702208 -10.158716 1.410687 0.140565 -13.347576 8.142811 -23.410050 -2.243910 1.165658 32.633389 1.073368 4.603753 -12.944801 -0.675300 0.000000 -26.654100 11.582312 -1.636406 -2.510974 -1.611353 -14.102074 -18.004058 -0.768484 -4.344281 62.462552 -2.595707 -14.017938 -11.505990 0.720500 -0.000001 -38.372300
1.662663 16.571347 -0.615994 26.446878 80.713293 27.770764 -10.099575 1.371891 -0.142614 -13.696509 8.278825 -24.377203 -2.229279 1.386854 35.970865 1.201457 4.876248 -15.267900 -0.973400 0.000001 -27.057900 11.674217 -1.381527 -2.447514 -1.766539 -13.533045 -20.112685 -0.782323 -4.454727 63.868717 -2.574346 -13.696762 -12.975665 1.051900 -0.000000 -36.976400
1.836327 16.451666 -0.588923 27.241914 80.503319 28.788569 -10.042468 1.337093 -0.414722 -14.029834 8.362673 -25.242367 -2.193412 1.599217 39.066766 1.339256 5.273486 -17.302928 -1.280600 0.000000 -27.493600 11.759445 -1.109291 -2.374826 -1.911456 -12.946445 -22.242715 -0.797247 -4.561479 65.147412 -2.601198 -13.626615 -14.461076 1.392800 0.000000 -35.229500
2.009340 16.337635 -0.559437 28.057853 80.297302 29.851263 -9.979522 1.309768 -0.661736 -14.366545 8.385380 -25.982003 -2.143814 1.791723 41.856985 1.483859 5.762349 -19.088419 -1.601500 -0.000000 -27.902800 11.840279 -0.823290 -2.285859 -2.062567 -12.379242 -24.402403 -0.810899 -4.663203 66.280205 -2.672529 -13.777412 -15.945233 1.754700 0.000001 -33.202500
2.182965 16.231416 -0.527807 28.870284 80.093033 30.934743 -9.909922 1.292711 -0.875371 -14.702875 8.354715 -26.577289 -2.089095 1.957845 44.302357 1.632285 6.303079 -20.677804 -1.936300 0.000000 -28.237500 11.912736 -0.527890 -2.176342 -2.210592 -11.850988 -26.583648 -0.821640 -4.756310 67.242506 -2.783585 -14.115392 -17.396090 2.141500 0.000000 -30.982300
2.358630 16.134900 -0.493973 29.679237 79.890244 32.042248 -9.831870 1.289052 -1.047656 -15.040241 8.277570 -27.020264 -2.037937 2.093021 46.377789 1.782202 6.857613 -22.122474 -2.283000 -0.000000 -28.477500 11.974338 -0.228203 -2.041249 -2.347471 -11.379579 -28.780822 -0.827611 -4.837713 68.011812 -2.927696 -14.597609 -18.780391 2.550000 -0.000001 -28.660500
2.537820 16.049766 -0.457760 30.484585 79.688923 33.177019 -9.744216 1.301775 -1.172311 -15.379672 8.162721 -27.309547 -1.997822 2.194695 48.069059 1.931616 7.393014 -23.463129 -2.637000 0.000000 -28.637200 12.022929 0.069826 -1.875979 -2.461254 -10.976318 -30.984777 -0.826974 -4.904431 68.566713 -3.097169 -15.177822 -20.065651 2.970500 0.000001 -26.325900
2.721121 15.977210 -0.419497 31.238977 79.488506 34.283679 -9.651750 1.332761 -1.248694 -15.706838 8.028212 -27.438378 -1.974247 2.263549 49.374128 2.077951 7.882614 -24.726950 -2.991900 0.000000 -28.742000 12.052839 0.359851 -1.681405 -2.530243 -10.642726 -33.168098 -0.818192 -4.952364 68.886642 -3.284573 -15.815442 -21.221177 3.388800 0.000000 -24.066300
2.909762 15.918375 -0.378613 31.959757 79.291503 35.381220 -9.553770 1.383362 -1.274973 -16.022336 7.882910 -27.410144 -1.970264 2.299309 50.290450 2.218902 8.308606 -25.916038 -3.338400 0.000000 -28.850700 12.064219 0.635309 -1.456039 -2.544238 -10.379030 -35.313850 -0.799522 -4.979821 68.957675 -3.482228 -16.468526 -22.227616 3.788200 0.000000 -21.941401
